<?xml version="1.0" encoding="UTF-8"?>
<svg xmlns="http://www.w3.org/2000/svg" xmlns:xlink="http://www.w3.org/1999/xlink" width="71px" height="60px" viewBox="0 0 71 60" version="1.1">
<g id="surface1">
<path style=" stroke:none;fill-rule:nonzero;fill:rgb(80%,80%,80%);fill-opacity:1;" d="M 62.023438 14.625 L 22.933594 14.625 C 21.492188 14.628906 20.324219 15.621094 20.328125 16.839844 L 20.328125 36.902344 C 20.324219 38.121094 21.492188 39.113281 22.933594 39.117188 L 62.023438 39.117188 C 63.464844 39.113281 64.628906 38.121094 64.625 36.902344 L 64.625 16.839844 C 64.628906 15.621094 63.464844 14.628906 62.023438 14.625 Z M 62.023438 14.625 "/>
<path style=" stroke:none;fill-rule:nonzero;fill:rgb(30.196078%,30.196078%,30.196078%);fill-opacity:1;" d="M 20.332031 19.546875 L 64.625 19.546875 L 64.625 25.269531 L 20.332031 25.269531 Z M 20.332031 19.546875 "/>
<path style=" stroke:none;fill-rule:nonzero;fill:rgb(100%,79.215686%,42.352941%);fill-opacity:1;" d="M 47.75 22.75 L 8.660156 22.75 C 7.21875 22.753906 6.054688 23.746094 6.058594 24.964844 L 6.058594 45.027344 C 6.054688 46.246094 7.21875 47.238281 8.660156 47.242188 L 47.75 47.242188 C 49.191406 47.238281 50.359375 46.246094 50.355469 45.027344 L 50.355469 24.964844 C 50.359375 23.746094 49.191406 22.753906 47.75 22.75 Z M 47.75 22.75 "/>
<path style=" stroke:none;fill-rule:nonzero;fill:rgb(30.196078%,30.196078%,30.196078%);fill-opacity:1;" d="M 6.058594 27.671875 L 50.355469 27.671875 L 50.355469 33.394531 L 6.058594 33.394531 Z M 6.058594 27.671875 "/>
<path style=" stroke:none;fill-rule:nonzero;fill:rgb(27.843137%,65.490196%,86.666667%);fill-opacity:1;" d="M 14.808594 40.605469 C 14.808594 42.5 16.617188 44.039062 18.847656 44.039062 C 21.078125 44.039062 22.886719 42.5 22.886719 40.605469 C 22.886719 38.707031 21.078125 37.171875 18.847656 37.171875 C 16.617188 37.171875 14.808594 38.707031 14.808594 40.605469 Z M 14.808594 40.605469 "/>
<path style=" stroke:none;fill-rule:nonzero;fill:rgb(98.823529%,34.509804%,23.921569%);fill-opacity:1;" d="M 10.769531 40.605469 C 10.769531 42.5 12.578125 44.039062 14.808594 44.039062 C 17.039062 44.039062 18.847656 42.5 18.847656 40.605469 C 18.847656 38.707031 17.039062 37.171875 14.808594 37.171875 C 12.578125 37.171875 10.769531 38.707031 10.769531 40.605469 Z M 10.769531 40.605469 "/>
<path style=" stroke:none;fill-rule:nonzero;fill:rgb(0%,0%,0%);fill-opacity:1;" d="M 62.023438 13.765625 L 49.949219 13.765625 C 49.390625 13.765625 48.941406 14.152344 48.941406 14.625 C 48.941406 15.097656 49.390625 15.484375 49.949219 15.484375 L 62.023438 15.484375 C 62.902344 15.484375 63.617188 16.089844 63.617188 16.839844 L 63.617188 18.6875 L 21.339844 18.6875 L 21.339844 16.839844 C 21.339844 16.089844 22.054688 15.484375 22.933594 15.484375 L 46.582031 15.484375 C 47.140625 15.484375 47.59375 15.097656 47.59375 14.625 C 47.59375 14.152344 47.140625 13.765625 46.585938 13.765625 L 22.933594 13.765625 C 20.941406 13.765625 19.320312 15.144531 19.320312 16.839844 L 19.320312 21.890625 L 8.660156 21.890625 C 6.671875 21.890625 5.050781 23.269531 5.050781 24.964844 L 5.050781 38.886719 C 5.050781 39.363281 5.5 39.746094 6.058594 39.746094 C 6.617188 39.746094 7.070312 39.359375 7.070312 38.886719 L 7.070312 34.253906 L 49.34375 34.253906 L 49.34375 45.027344 C 49.34375 45.773438 48.628906 46.382812 47.75 46.382812 L 8.660156 46.382812 C 7.78125 46.378906 7.066406 45.773438 7.070312 45.027344 L 7.070312 41.746094 C 7.070312 41.273438 6.617188 40.890625 6.058594 40.890625 C 5.5 40.890625 5.050781 41.273438 5.050781 41.746094 L 5.050781 45.027344 C 5.050781 46.722656 6.671875 48.097656 8.660156 48.097656 L 47.75 48.097656 C 49.742188 48.097656 51.363281 46.722656 51.363281 45.027344 L 51.363281 24.964844 C 51.363281 23.269531 49.742188 21.890625 47.75 21.890625 L 21.339844 21.890625 L 21.339844 20.40625 L 63.617188 20.40625 L 63.617188 24.410156 L 53.585938 24.410156 C 53.027344 24.410156 52.578125 24.792969 52.578125 25.269531 C 52.578125 25.742188 53.027344 26.125 53.585938 26.125 L 63.617188 26.125 L 63.617188 36.902344 C 63.617188 37.648438 62.90625 38.253906 62.023438 38.257812 L 53.71875 38.257812 C 53.164062 38.257812 52.710938 38.640625 52.710938 39.117188 C 52.710938 39.589844 53.164062 39.972656 53.71875 39.972656 L 62.023438 39.972656 C 64.011719 39.972656 65.636719 38.597656 65.636719 36.902344 L 65.636719 16.839844 C 65.636719 15.144531 64.015625 13.765625 62.023438 13.765625 Z M 49.34375 24.964844 L 49.34375 26.8125 L 12.386719 26.8125 C 11.828125 26.8125 11.375 27.199219 11.375 27.671875 C 11.375 28.144531 11.828125 28.53125 12.386719 28.53125 L 49.34375 28.53125 L 49.34375 32.535156 L 7.070312 32.535156 L 7.070312 28.53125 L 9.019531 28.53125 C 9.578125 28.53125 10.03125 28.144531 10.03125 27.671875 C 10.03125 27.199219 9.578125 26.8125 9.019531 26.8125 L 7.070312 26.8125 L 7.070312 24.964844 C 7.070312 24.214844 7.78125 23.609375 8.660156 23.609375 L 47.75 23.609375 C 48.632812 23.613281 49.34375 24.21875 49.34375 24.964844 Z M 49.34375 24.964844 "/>
<path style=" stroke:none;fill-rule:nonzero;fill:rgb(0%,0%,0%);fill-opacity:1;" d="M 16.832031 44.535156 C 17.464844 44.773438 18.152344 44.894531 18.847656 44.894531 C 21.632812 44.894531 23.898438 42.96875 23.898438 40.605469 C 23.898438 38.238281 21.632812 36.3125 18.847656 36.3125 C 18.152344 36.3125 17.464844 36.4375 16.832031 36.671875 C 16.195312 36.433594 15.503906 36.3125 14.808594 36.3125 C 12.027344 36.3125 9.761719 38.238281 9.761719 40.605469 C 9.761719 42.96875 12.027344 44.894531 14.808594 44.894531 C 15.527344 44.894531 16.210938 44.765625 16.832031 44.535156 Z M 21.878906 40.605469 C 21.878906 42.023438 20.519531 43.179688 18.847656 43.179688 C 19.503906 42.433594 19.859375 41.53125 19.859375 40.605469 C 19.859375 39.675781 19.503906 38.773438 18.847656 38.027344 C 20.519531 38.027344 21.878906 39.183594 21.878906 40.605469 Z M 11.78125 40.605469 C 11.78125 39.183594 13.140625 38.027344 14.8125 38.027344 C 16.480469 38.027344 17.839844 39.183594 17.839844 40.605469 C 17.839844 42.023438 16.480469 43.179688 14.8125 43.179688 C 13.140625 43.179688 11.78125 42.023438 11.78125 40.605469 Z M 45.457031 37.945312 C 46.015625 37.945312 46.46875 37.558594 46.46875 37.085938 C 46.46875 36.613281 46.015625 36.226562 45.457031 36.226562 L 30.515625 36.226562 C 29.957031 36.226562 29.503906 36.613281 29.503906 37.085938 C 29.503906 37.558594 29.957031 37.945312 30.515625 37.945312 Z M 45.457031 37.945312 "/>
</g>
</svg>
