<?xml version="1.0" encoding="UTF-8"?>
<svg xmlns="http://www.w3.org/2000/svg" xmlns:xlink="http://www.w3.org/1999/xlink" width="71px" height="60px" viewBox="0 0 71 60" version="1.1">
<g id="surface1">
<path style=" stroke:none;fill-rule:nonzero;fill:rgb(90.196078%,31.764706%,0%);fill-opacity:1;" d="M 37.867188 43 C 38.015625 42.5 38.015625 41.875 38.015625 41.25 C 38.015625 40.625 38.015625 40.125 37.867188 39.5 L 42.007812 37 C 42.453125 36.75 42.601562 36.25 42.304688 35.875 L 38.308594 30.125 C 38.015625 29.75 37.570312 29.625 37.128906 29.75 L 32.542969 31.625 C 31.507812 30.875 30.324219 30.375 28.992188 29.875 L 28.546875 25.625 C 28.546875 25.25 28.105469 24.875 27.660156 24.875 L 19.820312 24.875 C 19.378906 24.875 18.933594 25.25 18.933594 25.625 L 18.339844 30 C 17.011719 30.375 15.976562 31 14.792969 31.75 L 10.207031 30 C 9.761719 29.875 9.171875 30 9.023438 30.375 L 5.027344 36.125 C 4.734375 36.5 4.882812 37 5.324219 37.25 L 9.464844 39.75 C 9.320312 40.25 9.320312 40.875 9.320312 41.5 C 9.320312 42.125 9.320312 42.625 9.464844 43.25 L 5.324219 45.75 C 4.882812 46 4.734375 46.5 5.027344 46.875 L 9.023438 52.625 C 9.320312 53 9.761719 53.125 10.207031 53 L 14.792969 51.25 C 15.828125 52 17.011719 52.5 18.339844 53 L 18.785156 57.25 C 18.785156 57.625 19.230469 58 19.671875 58 L 27.511719 58 C 27.957031 58 28.398438 57.625 28.398438 57.25 L 28.84375 53 C 30.175781 52.625 31.210938 52 32.394531 51.25 L 36.980469 53 C 37.421875 53.125 38.015625 53 38.164062 52.625 L 42.15625 46.875 C 42.453125 46.5 42.304688 46 41.859375 45.75 Z M 23.667969 47.5 C 19.523438 47.5 16.269531 44.75 16.269531 41.25 C 16.269531 37.75 19.523438 35 23.667969 35 C 27.808594 35 31.0625 37.75 31.0625 41.25 C 31.0625 44.75 27.808594 47.5 23.667969 47.5 Z M 23.667969 47.5 "/>
<path style=" stroke:none;fill-rule:nonzero;fill:rgb(100%,62.745098%,0%);fill-opacity:1;" d="M 61.976562 19.125 C 62.125 18.5 62.125 18 62.125 17.5 C 62.125 17 62.125 16.5 61.976562 15.875 L 65.675781 13.625 C 66.117188 13.375 66.117188 13 65.972656 12.625 L 62.273438 7.25 C 61.976562 6.875 61.535156 6.75 61.089844 7 L 56.800781 8.625 C 55.765625 8 54.730469 7.5 53.546875 7 L 53.101562 3.125 C 53.25 2.75 52.953125 2.5 52.511719 2.5 L 45.261719 2.5 C 44.820312 2.5 44.375 2.75 44.375 3.125 L 43.929688 7 C 42.746094 7.375 41.710938 7.875 40.675781 8.625 L 36.386719 7 C 35.945312 6.875 35.5 7 35.203125 7.25 L 31.507812 12.625 C 31.210938 13 31.359375 13.375 31.800781 13.625 L 35.5 15.875 L 35.5 17.5 C 35.5 18 35.5 18.5 35.648438 19.125 L 31.949219 21.375 C 31.507812 21.625 31.507812 22 31.652344 22.375 L 35.351562 27.75 C 35.648438 28.125 36.089844 28.25 36.535156 28 L 40.824219 26.375 C 41.859375 27 42.894531 27.5 44.078125 28 L 44.523438 31.875 C 44.523438 32.25 44.964844 32.5 45.410156 32.5 L 52.660156 32.5 C 53.101562 32.5 53.546875 32.25 53.546875 31.875 L 53.988281 28 C 55.171875 27.625 56.207031 27.125 57.242188 26.375 L 61.535156 28 C 61.976562 28.125 62.421875 28 62.714844 27.75 L 66.414062 22.375 C 66.710938 22 66.5625 21.625 66.117188 21.375 Z M 48.8125 23.75 C 44.671875 23.75 41.417969 21 41.417969 17.5 C 41.417969 14 44.671875 11.25 48.8125 11.25 C 52.953125 11.25 56.207031 14 56.207031 17.5 C 56.207031 21 52.953125 23.75 48.8125 23.75 Z M 48.8125 23.75 "/>
</g>
</svg>
