<?xml version="1.0" encoding="UTF-8"?>
<svg xmlns="http://www.w3.org/2000/svg" xmlns:xlink="http://www.w3.org/1999/xlink" width="71px" height="60px" viewBox="0 0 71 60" version="1.1">
<g id="surface1">
<path style=" stroke:none;fill-rule:nonzero;fill:rgb(100%,81.568627%,35.686275%);fill-opacity:1;" d="M 71 30 C 71 46.570312 55.105469 60 35.5 60 C 15.894531 60 0 46.570312 0 30 C 0 13.429688 15.894531 0 35.5 0 C 55.105469 0 71 13.429688 71 30 Z M 71 30 "/>
<path style=" stroke:none;fill-rule:nonzero;fill:rgb(100%,100%,100%);fill-opacity:1;" d="M 40.8125 48.945312 L 40.8125 43.324219 C 40.8125 42.472656 41.648438 41.765625 42.65625 41.765625 L 49.308594 41.765625 L 49.308594 12.613281 C 49.308594 11.765625 48.46875 11.054688 47.464844 11.054688 L 13.195312 11.054688 C 12.1875 11.054688 11.347656 11.765625 11.347656 12.613281 L 11.347656 47.386719 C 11.347656 48.234375 12.1875 48.945312 13.195312 48.945312 Z M 40.8125 48.945312 "/>
<path style=" stroke:none;fill-rule:nonzero;fill:rgb(19.607843%,29.019608%,36.862745%);fill-opacity:1;" d="M 40.8125 48.945312 L 47.464844 48.945312 C 48.46875 48.945312 49.308594 48.234375 49.308594 47.386719 L 49.308594 41.765625 L 42.65625 41.765625 C 41.648438 41.765625 40.8125 42.472656 40.8125 43.324219 Z M 40.8125 48.945312 "/>
<path style=" stroke:none;fill-rule:nonzero;fill:rgb(90.196078%,91.372549%,93.333333%);fill-opacity:1;" d="M 40.8125 48.945312 L 49.308594 41.765625 L 42.65625 41.765625 C 41.648438 41.765625 40.8125 42.472656 40.8125 43.324219 Z M 40.8125 48.945312 "/>
<path style=" stroke:none;fill-rule:nonzero;fill:rgb(90.196078%,91.372549%,93.333333%);fill-opacity:1;" d="M 15.597656 17.667969 L 45.058594 17.667969 L 45.058594 18.519531 L 15.597656 18.519531 Z M 15.597656 17.667969 "/>
<path style=" stroke:none;fill-rule:nonzero;fill:rgb(90.196078%,91.372549%,93.333333%);fill-opacity:1;" d="M 15.597656 20.597656 L 45.058594 20.597656 L 45.058594 21.449219 L 15.597656 21.449219 Z M 15.597656 20.597656 "/>
<path style=" stroke:none;fill-rule:nonzero;fill:rgb(90.196078%,91.372549%,93.333333%);fill-opacity:1;" d="M 15.597656 23.480469 L 45.058594 23.480469 L 45.058594 24.332031 L 15.597656 24.332031 Z M 15.597656 23.480469 "/>
<path style=" stroke:none;fill-rule:nonzero;fill:rgb(90.196078%,91.372549%,93.333333%);fill-opacity:1;" d="M 15.597656 26.363281 L 45.058594 26.363281 L 45.058594 27.210938 L 15.597656 27.210938 Z M 15.597656 26.363281 "/>
<path style=" stroke:none;fill-rule:nonzero;fill:rgb(90.196078%,91.372549%,93.333333%);fill-opacity:1;" d="M 15.597656 29.292969 L 45.058594 29.292969 L 45.058594 30.140625 L 15.597656 30.140625 Z M 15.597656 29.292969 "/>
<path style=" stroke:none;fill-rule:nonzero;fill:rgb(90.196078%,91.372549%,93.333333%);fill-opacity:1;" d="M 15.597656 32.171875 L 45.058594 32.171875 L 45.058594 33.023438 L 15.597656 33.023438 Z M 15.597656 32.171875 "/>
<path style=" stroke:none;fill-rule:nonzero;fill:rgb(90.196078%,91.372549%,93.333333%);fill-opacity:1;" d="M 15.597656 35.101562 L 28.625 35.101562 L 28.625 35.953125 L 15.597656 35.953125 Z M 15.597656 35.101562 "/>
<path style=" stroke:none;fill-rule:nonzero;fill:rgb(51.764706%,85.882353%,100%);fill-opacity:1;" d="M 28.351562 37.867188 L 26.691406 36.464844 L 50.925781 15.988281 L 52.585938 17.390625 Z M 28.351562 37.867188 "/>
<path style=" stroke:none;fill-rule:nonzero;fill:rgb(32.941176%,75.294118%,92.156863%);fill-opacity:1;" d="M 29.964844 39.261719 L 28.304688 37.859375 L 52.535156 17.382812 L 54.195312 18.785156 Z M 29.964844 39.261719 "/>
<path style=" stroke:none;fill-rule:nonzero;fill:rgb(23.529412%,64.313725%,73.72549%);fill-opacity:1;" d="M 31.652344 40.65625 L 29.992188 39.25 L 54.222656 18.773438 L 55.882812 20.175781 Z M 31.652344 40.65625 "/>
<path style=" stroke:none;fill-rule:nonzero;fill:rgb(100%,81.568627%,35.686275%);fill-opacity:1;" d="M 31.585938 40.628906 L 23.703125 43.132812 L 26.667969 36.472656 Z M 31.585938 40.628906 "/>
<path style=" stroke:none;fill-rule:nonzero;fill:rgb(19.607843%,29.019608%,36.862745%);fill-opacity:1;" d="M 25.101562 40.0625 L 23.703125 43.132812 L 27.335938 42 Z M 25.101562 40.0625 "/>
<path style=" stroke:none;fill-rule:nonzero;fill:rgb(90.196078%,91.372549%,93.333333%);fill-opacity:1;" d="M 55.828125 20.152344 L 50.886719 15.976562 L 51.796875 15.210938 L 56.738281 19.386719 Z M 55.828125 20.152344 "/>
<path style=" stroke:none;fill-rule:nonzero;fill:rgb(100%,43.921569%,34.509804%);fill-opacity:1;" d="M 59.371094 16.0625 L 55.738281 12.992188 C 55.402344 12.707031 54.789062 12.707031 54.453125 12.992188 L 51.824219 15.210938 L 56.742188 19.371094 L 59.371094 17.148438 C 59.761719 16.867188 59.761719 16.394531 59.371094 16.0625 Z M 59.371094 16.0625 "/>
</g>
</svg>
